<svg width="88" height="40" viewBox="0 0 88 40" fill="none" xmlns="http://www.w3.org/2000/svg">
<g clip-path="url(#clip0_723_1662)">
<path fill-rule="evenodd" clip-rule="evenodd" d="M57.7633 39.6545C57.5784 39.6545 57.4283 39.5941 57.3135 39.4733C57.1987 39.3526 57.1413 39.18 57.1413 38.9553C57.1413 38.9135 57.1431 38.8709 57.147 38.8278C57.0713 38.9209 56.9897 39.0056 56.9016 39.0817C56.5963 39.3456 56.2756 39.4775 55.9393 39.4775C55.7319 39.4775 55.5723 39.4114 55.4603 39.2796C55.3483 39.1477 55.2922 38.9777 55.2922 38.77C55.2922 38.7006 55.2986 38.6229 55.3112 38.5365C55.1828 38.7133 55.0334 38.8781 54.8638 39.0311C54.533 39.3289 54.1996 39.4775 53.8634 39.4775C53.6729 39.4775 53.5228 39.4269 53.4137 39.326C53.3045 39.2249 53.2497 39.093 53.2497 38.93C53.2497 38.7391 53.3311 38.4638 53.4935 38.1044C53.5663 37.9191 53.6209 37.7715 53.6575 37.6621C53.694 37.5527 53.7121 37.45 53.7121 37.3546C53.7121 37.2142 53.6799 37.1033 53.6153 37.0218C53.5509 36.9402 53.4793 36.8729 53.4011 36.8197C53.3226 36.7663 53.2693 36.7312 53.2415 36.7145C53.1182 37.029 52.9864 37.3365 52.8463 37.6368C52.7292 37.8881 52.6278 38.0912 52.542 38.2463C52.4465 38.4374 52.3351 38.6134 52.2076 38.7741C52.0228 39.0071 51.8238 39.1882 51.6109 39.3175C51.398 39.4468 51.1933 39.5113 50.9974 39.5113C50.8013 39.5113 50.6515 39.4537 50.5477 39.3384C50.444 39.2233 50.3922 39.0843 50.3922 38.9215C50.3922 38.8484 50.4007 38.7672 50.4174 38.6771C50.1652 39.0141 49.9397 39.2613 49.7409 39.4184C49.5419 39.5755 49.3445 39.6542 49.1483 39.6542C48.9632 39.6542 48.8134 39.5938 48.6986 39.4731C48.5838 39.3523 48.5261 39.1797 48.5261 38.955C48.5261 38.9132 48.5282 38.8706 48.5318 38.8275C48.4561 38.9207 48.3742 39.0053 48.2864 39.0814C47.9811 39.3454 47.6601 39.4772 47.3239 39.4772C47.1167 39.4772 46.9571 39.4112 46.8448 39.2793C46.7328 39.1475 46.6767 38.9775 46.6767 38.7698C46.6767 38.7073 46.6819 38.6382 46.6922 38.5618C46.2998 39.1944 45.88 39.511 45.4328 39.511C45.2032 39.511 45.0338 39.4323 44.9244 39.2752C44.8152 39.1181 44.7604 38.9073 44.7604 38.6433C44.7604 38.5832 44.763 38.5205 44.7679 38.455C44.634 38.7055 44.4705 38.9142 44.2772 39.0814C43.9716 39.3454 43.6509 39.4772 43.3147 39.4772C43.1072 39.4772 42.9478 39.4112 42.8356 39.2793C42.7236 39.1475 42.6675 38.9775 42.6675 38.7698C42.6675 38.7016 42.6737 38.6253 42.6857 38.5406C42.6155 38.6279 42.5406 38.6985 42.4615 38.753C42.2569 38.8933 42.0314 38.9635 41.7847 38.9635C41.6895 38.9635 41.5999 38.955 41.5157 38.9382C41.3476 39.2189 41.1515 39.4452 40.9272 39.6165C40.703 39.7879 40.4538 39.8735 40.1791 39.8735C39.8934 39.8735 39.6777 39.7793 39.532 39.5913C39.3863 39.4032 39.3134 39.1434 39.3134 38.8121C39.3134 38.7014 39.3206 38.583 39.335 38.457C39.2938 38.4919 39.2503 38.5234 39.204 38.551C39.0081 38.6689 38.8063 38.728 38.5988 38.728C38.4477 38.728 38.313 38.6998 38.1954 38.6436C37.9935 38.9075 37.7791 39.1209 37.5523 39.2837C37.3253 39.4465 37.1111 39.528 36.9092 39.528C36.6796 39.528 36.5115 39.4579 36.4049 39.3175C36.2986 39.1771 36.2453 38.9919 36.2453 38.7615C36.2453 38.7445 36.2456 38.7274 36.2461 38.7104C36.1632 38.8417 36.0734 38.964 35.9763 39.0773C35.724 39.3722 35.4439 39.5195 35.1358 39.5195C34.951 39.5195 34.8109 39.462 34.7154 39.3467C34.6202 39.2316 34.5725 39.084 34.5725 38.9044C34.5725 38.7527 34.6173 38.5311 34.7069 38.239C34.735 38.1436 34.7618 38.0481 34.7867 37.9526C34.812 37.8572 34.8246 37.7757 34.8246 37.7083C34.8246 37.6072 34.8006 37.5313 34.753 37.4807C34.7054 37.4302 34.648 37.4052 34.5808 37.4052C34.4518 37.4052 34.3133 37.4965 34.1645 37.6789C34.0162 37.8616 33.7876 38.1885 33.4795 38.6604C33.4012 38.7839 33.2918 38.9916 33.1518 39.2837L33.0761 39.4437C32.9865 39.4437 32.8925 39.4282 32.7947 39.3972C32.6966 39.3663 32.6477 39.3258 32.6477 39.2752C32.6477 39.236 32.6953 39.0871 32.7906 38.8288C32.9082 38.4805 33.0022 38.1872 33.0722 37.9485C33.1422 37.7099 33.1773 37.5063 33.1773 37.3378C33.1773 37.1244 33.1072 37.0179 32.9672 37.0179C32.8104 37.0179 32.6073 37.1443 32.3579 37.3969C32.1084 37.6497 31.8633 37.9684 31.6224 38.3531C31.3814 38.7378 31.1938 39.1155 31.0591 39.486C30.9749 39.486 30.8784 39.4664 30.7692 39.4272C30.6601 39.3879 30.6053 39.3485 30.6053 39.3092C30.6053 39.2925 30.6444 39.1604 30.7229 38.9135C30.8519 38.537 30.9597 38.1918 31.0465 37.8773C31.1333 37.5628 31.1796 37.2903 31.1853 37.0602C31.2244 37.0153 31.2805 36.9745 31.3534 36.9382C31.4262 36.9018 31.4991 36.8832 31.5719 36.8832C31.7233 36.8832 31.799 36.9562 31.799 37.1023C31.799 37.254 31.7261 37.5739 31.5804 38.0626C31.8551 37.6245 32.1506 37.2483 32.4673 36.9338C32.7839 36.6193 33.0794 36.4621 33.3541 36.4621C33.5166 36.4621 33.6329 36.521 33.7029 36.6391C33.773 36.757 33.808 36.9113 33.808 37.1025C33.808 37.2934 33.7799 37.5011 33.7238 37.7259C33.6677 37.9506 33.609 38.1387 33.5472 38.2904C33.7601 37.9028 33.9815 37.5899 34.2111 37.351C34.4407 37.1123 34.6845 36.9931 34.9422 36.9931C35.1103 36.9931 35.2323 37.0437 35.3078 37.1446C35.3834 37.2457 35.4213 37.375 35.4213 37.5321C35.4213 37.6386 35.4071 37.7524 35.3793 37.8732C35.3513 37.9939 35.3093 38.1412 35.2532 38.3154C35.1579 38.6131 35.1103 38.8208 35.1103 38.9387C35.1103 39.1297 35.1945 39.2251 35.3626 39.2251C35.5701 39.2251 35.766 39.0974 35.9511 38.8417C36.078 38.6663 36.2026 38.4622 36.3241 38.2297C36.3424 38.1663 36.3637 38.1023 36.3882 38.0373C36.4835 37.7844 36.6068 37.5739 36.7579 37.4054C36.9092 37.2369 37.0606 37.1526 37.2117 37.1526C37.2622 37.1526 37.3211 37.1668 37.3883 37.1946C37.3211 37.2509 37.2398 37.3744 37.1445 37.5654C37.0493 37.7563 36.9667 37.9599 36.8966 38.1761C36.8266 38.3923 36.7916 38.5677 36.7916 38.7024C36.7916 39.0226 36.8925 39.1826 37.0941 39.1826C37.2117 39.1826 37.3518 39.1209 37.5145 38.9973C37.6769 38.8737 37.8365 38.7109 37.9935 38.5087C37.8368 38.3794 37.7147 38.2109 37.628 38.0032C37.541 37.7955 37.4977 37.5793 37.4977 37.3546C37.4977 37.0625 37.5719 36.8125 37.7204 36.6048C37.8689 36.3971 38.0692 36.2931 38.3213 36.2931C38.5342 36.2931 38.684 36.3507 38.771 36.4657C38.8577 36.5808 38.9012 36.7395 38.9012 36.9418C38.9012 37.1551 38.8495 37.3953 38.7458 37.6621C38.642 37.9289 38.5061 38.1885 38.338 38.4413C38.4389 38.4973 38.5455 38.5254 38.6575 38.5254C38.8199 38.5254 38.988 38.4764 39.1618 38.3781C39.2398 38.334 39.309 38.279 39.37 38.213C39.4449 37.7787 39.5943 37.2651 39.8172 36.6724C40.1534 35.7794 40.5331 34.9848 40.9561 34.2884C41.3793 33.5921 41.7029 33.2437 41.9268 33.2437C42.011 33.2437 42.0767 33.2984 42.1243 33.4081C42.1719 33.5175 42.1956 33.6398 42.1956 33.7745C42.1956 34.0384 42.1032 34.3893 41.9183 34.8274C41.7335 35.2655 41.4923 35.6866 41.1955 36.0909C40.8984 36.4952 40.5931 36.7929 40.2793 36.9838C40.2064 37.1185 40.121 37.3714 40.0229 37.7418C39.9248 38.1126 39.8759 38.4524 39.8759 38.7612C39.8759 39.2891 40.0301 39.5531 40.3382 39.5531C40.5007 39.5531 40.6688 39.487 40.8425 39.3552C41.0163 39.2233 41.1563 39.0533 41.2629 38.8456C41.0668 38.7445 40.9154 38.5943 40.8091 38.3949C40.7025 38.1957 40.6495 37.9836 40.6495 37.7589C40.6495 37.4949 40.7182 37.28 40.8554 37.1144C40.9926 36.9487 41.1594 36.8659 41.3556 36.8659C41.518 36.8659 41.647 36.9333 41.7423 37.0679C41.8375 37.2029 41.8851 37.3938 41.8851 37.6407C41.8851 38.0115 41.7871 38.3933 41.5909 38.7863C41.6581 38.8033 41.7309 38.8116 41.8095 38.8116C42.0728 38.8116 42.2844 38.7272 42.444 38.5587C42.5666 38.4294 42.6816 38.269 42.7892 38.0767C42.8091 38.0076 42.8312 37.9351 42.8559 37.8595C42.9821 37.472 43.1388 37.1322 43.3268 36.8401C43.5144 36.548 43.698 36.402 43.8771 36.402C43.9276 36.402 43.9711 36.4188 44.0074 36.4526C44.0437 36.4864 44.062 36.5313 44.062 36.5875C44.062 36.6662 43.9721 36.8543 43.793 37.1518C43.6079 37.4606 43.4609 37.7375 43.3517 37.9815C43.2426 38.2256 43.1877 38.4576 43.1877 38.6764C43.1877 38.873 43.2199 39.0063 43.2843 39.0765C43.3486 39.1467 43.4539 39.1818 43.5994 39.1818C44.0138 39.1818 44.4232 38.7953 44.8276 38.0231C44.9079 37.6167 45.0588 37.1368 45.2807 36.5829C45.6282 35.7152 46.0161 34.9332 46.4448 34.2368C46.8734 33.5404 47.1831 33.1921 47.3736 33.1921C47.4521 33.1921 47.518 33.2608 47.571 33.3985C47.6243 33.5361 47.6508 33.6751 47.6508 33.8155C47.6508 34.0738 47.5458 34.4543 47.3357 34.9569C47.1257 35.4595 46.8497 35.9691 46.5078 36.4859C46.166 37.0027 45.8017 37.4209 45.415 37.7411C45.3422 38.0667 45.3059 38.3505 45.3059 38.592C45.3059 39.0244 45.4292 39.2406 45.6756 39.2406C45.883 39.2406 46.0944 39.1088 46.3101 38.8448C46.489 38.6258 46.6517 38.3701 46.798 38.0778C46.8178 38.0081 46.8402 37.9354 46.8649 37.8592C46.991 37.4717 47.1478 37.1319 47.3355 36.8399C47.5231 36.5478 47.7067 36.4018 47.8861 36.4018C47.9366 36.4018 47.9801 36.4185 48.0164 36.4523C48.0527 36.4861 48.071 36.531 48.071 36.5873C48.071 36.666 47.9814 36.854 47.8019 37.1515C47.6171 37.4604 47.4699 37.7372 47.3607 37.9813C47.2516 38.2254 47.1967 38.4573 47.1967 38.6761C47.1967 38.8727 47.2289 39.0061 47.2935 39.0763C47.3579 39.1464 47.4629 39.1815 47.6086 39.1815C47.9515 39.1815 48.2913 38.9168 48.6273 38.3874C48.6865 38.214 48.7714 38.0324 48.8819 37.842C49.12 37.432 49.4212 37.0839 49.7855 36.7973C50.1497 36.5109 50.5055 36.3677 50.8528 36.3677C51.0713 36.3677 51.2533 36.4265 51.399 36.5444C51.5447 36.6623 51.6176 36.8141 51.6176 36.9993C51.6176 37.1286 51.5813 37.2212 51.5084 37.2772C51.4356 37.3334 51.3347 37.3615 51.2057 37.3615C51.2338 37.2604 51.2477 37.1621 51.2477 37.0666C51.2477 36.9263 51.2139 36.8125 51.1468 36.7256C51.0796 36.6386 50.9758 36.595 50.8358 36.595C50.5892 36.595 50.3299 36.7325 50.0583 37.0078C49.7865 37.2829 49.5594 37.6116 49.3774 37.9934C49.1952 38.3753 49.1043 38.704 49.1043 38.979C49.1043 39.198 49.18 39.3074 49.3313 39.3074C49.5556 39.3074 49.8187 39.1292 50.1214 38.7726C50.4239 38.416 50.749 37.9821 51.0963 37.4709C51.1691 37.4823 51.2433 37.506 51.319 37.5424C51.3947 37.579 51.4325 37.6252 51.4325 37.6815C51.4325 37.7264 51.406 37.7978 51.3527 37.8964C51.2994 37.9947 51.2672 38.0522 51.2562 38.069C51.1609 38.2318 51.0852 38.3765 51.0291 38.503C50.973 38.6294 50.9449 38.7458 50.9449 38.8526C50.9449 38.948 50.9689 39.0337 51.0165 39.1095C51.0641 39.1851 51.1354 39.2231 51.2309 39.2231C51.3934 39.2231 51.5978 39.1067 51.8444 38.8735C52.0645 38.6653 52.2828 38.3817 52.4985 38.0233C52.7315 37.5535 52.931 37.0744 53.0968 36.5862C53.0407 36.53 53.0126 36.4626 53.0126 36.3842C53.0126 36.2831 53.0337 36.1876 53.0757 36.0978C53.1176 36.008 53.1681 35.9379 53.2271 35.8873C53.286 35.8367 53.3321 35.8114 53.3658 35.8114C53.4443 35.8114 53.4835 35.8788 53.4835 36.0135C53.4835 36.0359 53.4696 36.0865 53.4415 36.1652C53.4134 36.2439 53.3967 36.2973 53.391 36.3251C53.391 36.3814 53.415 36.4332 53.4626 36.481C53.5102 36.5287 53.5872 36.5891 53.6938 36.6621C53.8675 36.7857 54.0035 36.9077 54.1013 37.0285C54.1994 37.1492 54.2483 37.305 54.2483 37.496C54.2483 37.6196 54.2287 37.7416 54.1896 37.8623C54.1505 37.9831 54.0915 38.1418 54.013 38.3384C53.8897 38.608 53.8282 38.8017 53.8282 38.9197C53.8282 39.0881 53.9123 39.1725 54.0802 39.1725C54.2483 39.1725 54.429 39.1052 54.6223 38.9702C54.8157 38.8355 54.9935 38.6684 55.156 38.4689C55.2523 38.351 55.3326 38.2385 55.3972 38.1314C55.4206 38.0455 55.4482 37.9544 55.4796 37.8582C55.6057 37.4707 55.7625 37.1309 55.9502 36.8388C56.1378 36.5468 56.3214 36.4007 56.5008 36.4007C56.5513 36.4007 56.5948 36.4175 56.6311 36.4513C56.6674 36.4851 56.6859 36.53 56.6859 36.5862C56.6859 36.6649 56.5961 36.853 56.4169 37.1505C56.2321 37.4593 56.0848 37.7362 55.9756 37.9803C55.8662 38.2243 55.8117 38.4563 55.8117 38.6751C55.8117 38.8717 55.8438 39.0051 55.9085 39.0752C55.9728 39.1454 56.0781 39.1805 56.2236 39.1805C56.5667 39.1805 56.9063 38.9158 57.2425 38.3864C57.3017 38.213 57.3864 38.0313 57.4971 37.8409C57.7352 37.431 58.0364 37.0829 58.4007 36.7963C58.7649 36.5099 59.1207 36.3667 59.4682 36.3667C59.6868 36.3667 59.8688 36.4255 60.0145 36.5434C60.1602 36.6613 60.233 36.813 60.233 36.9983C60.233 37.1275 60.1965 37.2202 60.1236 37.2761C60.0508 37.3324 59.9499 37.3605 59.8212 37.3605C59.8492 37.2594 59.8631 37.1611 59.8631 37.0656C59.8631 36.9253 59.8297 36.8115 59.7622 36.7245C59.695 36.6376 59.5913 36.594 59.4512 36.594C59.2049 36.594 58.9456 36.7315 58.6738 37.0068C58.4019 37.2818 58.1749 37.6105 57.9929 37.9924C57.8109 38.3742 57.7197 38.7029 57.7197 38.978C57.7197 39.197 57.7954 39.3064 57.9468 39.3064C58.171 39.3064 58.4344 39.1281 58.7369 38.7716C59.0396 38.415 59.3645 37.981 59.7118 37.4699C59.7846 37.4813 59.859 37.505 59.9347 37.5414C60.0104 37.578 60.0482 37.6242 60.0482 37.6804C60.0482 37.7253 60.0214 37.7968 59.9684 37.8954C59.9151 37.9937 59.8829 38.0512 59.8716 38.068C59.7764 38.2308 59.7007 38.3755 59.6448 38.5019C59.5887 38.6284 59.5606 38.7447 59.5606 38.8515C59.5606 38.947 59.5843 39.0327 59.6319 39.1085C59.6796 39.1841 59.7509 39.222 59.8464 39.222C60.0088 39.222 60.2132 39.1057 60.4598 38.8724C60.7065 38.6395 60.9503 38.3123 61.1912 37.891L61.2754 37.9753C61.1577 38.2731 61.0064 38.5383 60.8215 38.7716C60.6367 39.0045 60.4377 39.1857 60.2248 39.3149C60.0119 39.4442 59.8073 39.5087 59.6114 39.5087C59.4155 39.5087 59.2654 39.4512 59.1616 39.3358C59.0581 39.2208 59.0061 39.0817 59.0061 38.9189C59.0061 38.8459 59.0146 38.7646 59.0314 38.6745C58.7793 39.0115 58.5538 39.2587 58.3548 39.4158C58.1561 39.5729 57.9584 39.6516 57.7622 39.6516L57.7633 39.6545ZM56.948 35.6195C56.8471 35.6195 56.7644 35.5955 56.7001 35.5478C56.6357 35.5 56.6035 35.4314 56.6035 35.3413C56.6035 35.2291 56.6707 35.128 56.8054 35.0382C56.9397 34.9484 57.0772 34.9035 57.2172 34.9035C57.4021 34.9035 57.4945 34.9905 57.4945 35.1646C57.4945 35.2714 57.4371 35.3739 57.322 35.4722C57.2072 35.5705 57.0826 35.6197 56.948 35.6197V35.6195ZM51.2155 35.8047C51.1764 35.788 51.147 35.7554 51.1272 35.7077C51.1076 35.66 51.0978 35.6192 51.0978 35.5857C51.0978 35.5183 51.1498 35.3991 51.2533 35.2278C51.3571 35.0565 51.4775 34.9035 51.6148 34.7688C51.752 34.6341 51.8712 34.5668 51.9718 34.5668C52.0784 34.5668 52.1399 34.6538 52.1567 34.8279C51.7419 35.1873 51.4281 35.5129 51.2152 35.805L51.2155 35.8047ZM48.3325 35.6195C48.2316 35.6195 48.149 35.5955 48.0846 35.5478C48.0202 35.5 47.9878 35.4314 47.9878 35.3413C47.9878 35.2291 48.055 35.128 48.1896 35.0382C48.324 34.9484 48.4612 34.9035 48.6015 34.9035C48.7864 34.9035 48.8788 34.9905 48.8788 35.1646C48.8788 35.2714 48.8214 35.3739 48.7066 35.4722C48.5917 35.5705 48.4671 35.6197 48.3325 35.6197V35.6195ZM45.4915 37.456C45.7996 37.1471 46.1008 36.7583 46.3951 36.2893C46.6893 35.8202 46.9287 35.371 47.1138 34.9414C47.2987 34.5119 47.3911 34.2015 47.3911 34.0105C47.3911 33.9208 47.3715 33.8759 47.3321 33.8759C47.2539 33.8759 47.0927 34.0681 46.8489 34.4528C46.6051 34.8375 46.3544 35.3078 46.0967 35.8638C45.839 36.4198 45.6372 36.9505 45.4915 37.456ZM44.3233 35.6195C44.2224 35.6195 44.1397 35.5955 44.0754 35.5478C44.011 35.5 43.9788 35.4314 43.9788 35.3413C43.9788 35.2291 44.046 35.128 44.1807 35.0382C44.3153 34.9484 44.4525 34.9035 44.5925 34.9035C44.7774 34.9035 44.8698 34.9905 44.8698 35.1646C44.8698 35.2714 44.8124 35.3739 44.6976 35.4722C44.5828 35.5705 44.4579 35.6197 44.3235 35.6197L44.3233 35.6195ZM40.3727 36.6556C40.6137 36.4647 40.8531 36.1881 41.0915 35.8259C41.3296 35.4636 41.5258 35.1042 41.6797 34.7474C41.8339 34.3908 41.9109 34.1395 41.9109 33.9935C41.9109 33.9486 41.8996 33.9262 41.8772 33.9262C41.8156 33.9262 41.6854 34.0694 41.4864 34.3558C41.2876 34.6421 41.0817 34.9974 40.8685 35.4213C40.6556 35.8455 40.4901 36.2568 40.3727 36.6554V36.6556ZM41.3476 38.6774C41.4766 38.4024 41.541 38.1185 41.541 37.8265C41.541 37.6356 41.5144 37.4826 41.4611 37.3675C41.4079 37.2524 41.3422 37.1946 41.2637 37.1946C41.1795 37.1946 41.1054 37.2537 41.041 37.3716C40.9767 37.4895 40.9445 37.6327 40.9445 37.8012C40.9445 37.9697 40.9779 38.1353 41.0451 38.2981C41.1126 38.4609 41.2132 38.5873 41.3479 38.6771L41.3476 38.6774ZM38.1452 38.2899C38.2909 38.0708 38.4085 37.8476 38.4981 37.6201C38.588 37.3928 38.6327 37.1835 38.6327 36.9926C38.6327 36.8352 38.6088 36.7173 38.5614 36.6389C38.5138 36.5602 38.4536 36.521 38.3807 36.521C38.3022 36.521 38.2224 36.5589 38.1413 36.6347C38.06 36.7106 37.9928 36.8146 37.9395 36.9464C37.8862 37.0785 37.8597 37.223 37.8597 37.3801C37.8597 37.5543 37.8834 37.7215 37.931 37.8814C37.9786 38.0414 38.0499 38.1779 38.1454 38.2901L38.1452 38.2899ZM26.7224 39.9999C26.7505 39.7192 26.8792 39.5366 27.1091 39.4524C27.339 39.3681 27.6667 39.326 28.0925 39.326C28.2606 38.9666 28.423 38.489 28.58 37.8938C28.7368 37.2986 28.9219 36.5346 29.1348 35.6024C29.1629 35.4789 29.2316 35.1827 29.3408 34.7136C29.4499 34.2446 29.5439 33.9035 29.6224 33.6901C29.1796 33.7014 28.8308 33.7182 28.5759 33.7407C28.3208 33.7631 28.0394 33.8023 27.7313 33.8586C27.7704 33.6395 27.9259 33.4765 28.1978 33.3699C28.4696 33.2631 28.8856 33.2099 29.446 33.2099C29.8103 33.2099 30.1983 33.2295 30.6102 33.269C31.022 33.3082 31.368 33.3477 31.6481 33.3869C31.5305 33.5048 31.403 33.5835 31.2656 33.6228C31.1284 33.662 30.9839 33.6816 30.8328 33.6816C30.3957 33.6816 30.0904 33.6844 29.9166 33.6901L29.8577 33.9935C29.5101 35.9255 29.2525 37.2256 29.0844 37.8938C28.9891 38.2757 28.8856 38.5861 28.7734 38.8247C28.6614 39.0634 28.5296 39.2334 28.3782 39.3345C28.6416 39.3513 28.9134 39.3766 29.1935 39.4101C29.6026 39.4607 29.9388 39.4888 30.2021 39.4945C29.9612 39.736 29.6445 39.8567 29.2522 39.8567H28.8403C28.3247 39.8624 27.9185 39.8722 27.6216 39.8862C27.3246 39.9001 27.0246 39.938 26.7222 39.9997L26.7224 39.9999Z" fill="#553B1E"/>
<path fill-rule="evenodd" clip-rule="evenodd" d="M14.9309 7.9632L13.5891 11.2004H12.9247L16.8451 1.80146H17.2099L21.1435 11.2004H20.4401L19.0984 7.9632H14.9306H14.9309ZM12.199 27.0586C13.9112 27.0586 15.2864 26.5932 16.3246 25.662C17.3628 24.7311 17.8821 23.3284 17.8821 21.4542C17.8821 19.58 17.2961 18.089 16.1243 16.9814C14.9525 15.8737 13.5044 15.32 11.7802 15.32C10.675 15.32 9.71581 15.3505 8.90233 15.4114V26.9126C9.69161 27.0099 10.7906 27.0586 12.1993 27.0586H12.199ZM68.9791 25.9634C67.771 24.6612 67.1668 23.0608 67.1668 21.1621C67.1668 19.2637 67.771 17.6661 68.9791 16.3701C70.1875 15.0739 71.7146 14.426 73.5601 14.426C75.4059 14.426 76.9361 15.0742 78.1504 16.3701C79.3647 17.6664 79.9719 19.2637 79.9719 21.1621C79.9719 23.0608 79.3647 24.6612 78.1504 25.9634C76.9361 27.2658 75.4059 27.9168 73.5601 27.9168C71.7143 27.9168 70.1872 27.2656 68.9791 25.9634ZM69.6258 16.9359C68.6179 18.074 68.1139 19.4827 68.1139 21.1621C68.1139 22.8417 68.6208 24.2533 69.6348 25.3976C70.6488 26.5416 71.9604 27.1136 73.5694 27.1136C75.1783 27.1136 76.4897 26.5416 77.5037 25.3976C78.5177 24.2536 79.0246 22.8417 79.0246 21.1621C79.0246 19.4825 78.5175 18.074 77.5037 16.9359C76.4897 15.7981 75.1752 15.229 73.5601 15.229C71.945 15.229 70.6336 15.7979 69.6258 16.9359ZM55.3739 27.6977V14.6995C56.5274 14.6144 57.4928 14.5718 58.27 14.5718C59.5087 14.5718 60.5287 14.8912 61.33 15.5301C62.1314 16.1691 62.5323 17.0727 62.5323 18.2409C62.5323 19.032 62.3016 19.7684 61.84 20.45C61.3787 21.1314 60.8626 21.673 60.2918 22.0747C60.741 22.6952 61.2966 23.4346 61.9584 24.2928C62.6203 25.1507 63.0484 25.6894 63.2428 25.9084C63.9834 26.6995 64.8213 27.1497 65.7566 27.2594L65.7383 27.8435C64.9977 27.8314 64.3963 27.7189 63.935 27.5058C63.4737 27.2929 63.0335 26.9673 62.6144 26.5292C62.1953 26.0911 61.1542 24.7278 59.4904 22.4398C58.3003 22.4398 57.2196 22.4031 56.2481 22.3304V27.6975H55.3739V27.6977ZM58.9622 21.7099C59.4966 21.7099 60.0673 21.3569 60.6744 20.651C61.2816 19.9451 61.5852 19.1267 61.5852 18.1955C61.5852 17.2646 61.2724 16.5585 60.6471 16.0778C60.0215 15.5969 59.1929 15.3567 58.1608 15.3567C57.6143 15.3567 56.9769 15.3809 56.2484 15.4297V21.6183C57.2199 21.6792 58.1245 21.7096 58.9624 21.7096L58.9622 21.7099ZM48.8814 26.4288C48.0435 27.4206 46.7684 27.9168 45.0563 27.9168C43.3441 27.9168 42.0662 27.4178 41.2221 26.4198C40.3782 25.4218 39.956 24.0588 39.956 22.3304V14.6446H40.8305V22.3304C40.8305 25.5433 42.2361 27.15 45.0473 27.15C47.8584 27.15 49.264 25.5433 49.264 22.3304V14.6446H50.1382V22.3304C50.1382 24.0709 49.7191 25.4368 48.8814 26.4288ZM24.4929 25.9634C23.2845 24.6612 22.6803 23.0608 22.6803 21.1621C22.6803 19.2637 23.2845 17.6661 24.4929 16.3701C25.7013 15.0739 27.2281 14.426 29.0739 14.426C30.9197 14.426 32.4498 15.0742 33.6641 16.3701C34.8784 17.6664 35.4857 19.2637 35.4857 21.1621C35.4857 23.0608 34.8784 24.6612 33.6641 25.9634C32.4498 27.2658 30.9197 27.9168 29.0739 27.9168C27.2281 27.9168 25.7013 27.2656 24.4929 25.9634ZM25.1396 16.9359C24.1317 18.074 23.6277 19.4827 23.6277 21.1621C23.6277 22.8417 24.1348 24.2533 25.1486 25.3976C26.1623 26.5416 27.4739 27.1136 29.0829 27.1136C30.6918 27.1136 32.0035 26.5416 33.0175 25.3976C34.0312 24.2536 34.5384 22.8417 34.5384 21.1621C34.5384 19.4825 34.0312 18.074 33.0175 16.9359C32.0035 15.7981 30.689 15.229 29.0739 15.229C27.459 15.229 26.1474 15.7979 25.1396 16.9359ZM11.7802 14.5171C13.7837 14.5171 15.4596 15.141 16.8075 16.3885C18.1554 17.6359 18.8294 19.3308 18.8294 21.4728C18.8294 22.5559 18.6564 23.5144 18.3102 24.348C17.9642 25.1816 17.4874 25.8481 16.8804 26.347C15.6295 27.3571 14.0692 27.8623 12.1993 27.8623C10.9728 27.8623 9.5822 27.7955 8.02783 27.6616V14.6451C9.26659 14.56 10.5172 14.5174 11.7802 14.5174V14.5171ZM68.8617 7.96346L67.5202 11.2007H66.8558L70.7762 1.80172H71.1408L75.0743 11.2007H74.371L73.0293 7.96346H68.8615H68.8617ZM70.9196 2.84613C70.9109 2.8549 70.8936 2.90702 70.8676 3.00274C70.7461 3.37685 70.629 3.69472 70.516 3.95557L69.0834 7.42784H72.8084L71.3758 3.96847C71.0718 3.30719 70.9199 2.93282 70.9199 2.84587L70.9196 2.84613ZM63.8935 11.2007V1.86699H64.5188V11.2007H63.8935ZM58.1829 11.3573C56.8283 11.3573 55.6648 10.8939 54.6922 9.96689C53.7196 9.04013 53.2336 7.89561 53.2336 6.53358C53.2336 5.17156 53.6591 4.02729 54.5099 3.10027C55.3607 2.17351 56.4507 1.71012 57.779 1.71012C58.8211 1.71012 59.8761 1.88402 60.9442 2.23233L60.7748 2.75428C59.7327 2.44106 58.7341 2.28445 57.779 2.28445C56.6417 2.28445 55.7124 2.69339 54.9918 3.51154C54.271 4.32942 53.9106 5.33023 53.9106 6.51397C53.9106 7.69746 54.3297 8.70472 55.1677 9.53602C56.0056 10.3671 57.0109 10.7827 58.1829 10.7827C59.2075 10.7827 60.0933 10.6261 60.8402 10.3129L61.0355 10.7567C60.7055 10.9481 60.2736 11.0959 59.7396 11.2004C59.2057 11.3049 58.6867 11.357 58.1832 11.357L58.1829 11.3573ZM42.5733 3.35518L42.5993 4.46487V11.2007H41.974V1.78856H42.2606L48.3954 8.87707C48.8122 9.37296 49.1335 9.769 49.3592 10.0649C49.3245 9.64722 49.3072 9.16862 49.3072 8.62912V1.86725H49.9323V11.2791H49.6457L43.3938 4.06032C42.9597 3.56443 42.6817 3.23366 42.5602 3.06828L42.5733 3.35544V3.35518ZM34.5966 11.2007V1.86699H38.9209V2.41526H35.2219V5.84857H38.5692V6.38394H35.2219V10.6527H39.0643V11.2009H34.5968L34.5966 11.2007ZM36.7456 0.731242L35.391 1.39716L35.2216 1.16211L36.7456 0.000305176L38.2696 1.16211L38.1002 1.39716L36.7456 0.731242ZM27.4794 2.28471C26.3418 2.28471 25.4127 2.69365 24.6921 3.51179C23.9713 4.32968 23.6109 5.33281 23.6109 6.52068C23.6109 7.70855 24.019 8.71607 24.8353 9.54273C25.6513 10.3694 26.6458 10.7827 27.8179 10.7827C28.8252 10.7827 29.6631 10.6434 30.3317 10.365V6.52713H30.957V10.6524C30.2017 11.1223 29.1444 11.3573 27.7854 11.3573C26.4265 11.3573 25.2781 10.8895 24.3402 9.95399C23.4024 9.01846 22.9336 7.87419 22.9336 6.52068C22.9336 5.16743 23.3592 4.02729 24.2102 3.10053C25.061 2.17376 26.151 1.71038 27.4794 1.71038C28.5214 1.71038 29.5764 1.88428 30.6445 2.23259L30.4751 2.75454C29.433 2.44132 28.4344 2.28471 27.4794 2.28471ZM16.9888 2.84587C16.98 2.85465 16.9628 2.90676 16.9368 3.00249C16.815 3.3766 16.6979 3.69446 16.5851 3.95531L15.1525 7.42758H18.8775L17.4447 3.96821C17.1409 3.30693 16.9888 2.93257 16.9888 2.84562V2.84587Z" fill="#553B1E"/>
<path fill-rule="evenodd" clip-rule="evenodd" d="M0.788743 10.6978C1.82233 10.6901 2.85566 10.6826 3.88899 10.6785H3.89929C6.09157 10.6699 8.28257 10.6779 10.4707 10.7373C10.4782 10.737 10.4857 10.7368 10.4931 10.7368H10.6481L10.6582 10.7424C11.293 10.7605 11.9275 10.7829 12.5616 10.8106C15.1653 10.9241 17.7674 11.1258 20.3672 11.4731H20.3674C21.704 11.6517 23.0398 11.8689 24.3749 12.1323C26.3949 12.5312 28.4104 13.0359 30.4132 13.6004C30.4219 13.6027 30.4307 13.6053 30.4394 13.6079C33.4352 14.4531 36.4031 15.4322 39.3167 16.3938C41.4274 17.0902 43.5095 17.7773 45.5481 18.3955C45.5576 18.398 45.5671 18.4009 45.5764 18.404C46.1273 18.5707 46.6751 18.7327 47.2193 18.888C50.5518 19.8403 53.7632 20.562 56.6843 21.0816C58.3798 21.3832 59.9774 21.617 61.4442 21.7885C61.4628 21.7898 61.481 21.7919 61.4993 21.795C62.9276 21.9609 64.2307 22.068 65.378 22.1208C67.5374 22.2204 69.1386 22.1286 70.4605 21.9408C71.7814 21.7532 72.8345 21.4678 73.888 21.1825L75.8818 20.6425L74.4306 21.915C72.547 23.567 70.6631 25.219 66.3043 27.2854C63.8891 28.4302 60.7082 29.7032 57.046 30.7584C54.1414 31.5954 50.931 32.2954 47.555 32.6858C43.6598 33.1362 39.5533 33.1729 35.5013 32.7647C33.498 32.5629 31.5062 32.252 29.5577 31.8287C29.5348 31.825 29.5124 31.8201 29.4908 31.8142C27.8559 31.4566 26.2518 31.0195 24.6977 30.5007C24.6833 30.4963 24.6689 30.4917 24.655 30.4862C24.5026 30.4351 24.3504 30.3833 24.199 30.3307C20.958 29.2042 17.9556 27.7209 15.2901 26.1169C15.2829 26.1127 15.2757 26.1084 15.2685 26.104L15.2474 26.0913C14.0359 25.3606 12.8932 24.6047 11.8284 23.8459L11.8166 23.8374C9.97596 22.5249 8.36881 21.2034 7.0451 19.99C3.24824 16.5092 1.78166 13.9219 0.314812 11.3348L0.302198 11.3088L0.000488281 10.704L0.789001 10.6981L0.788743 10.6978ZM63.8896 27.361C64.2629 26.9717 64.6343 26.5828 64.9723 26.2064C65.316 25.8233 65.6077 25.4713 65.7951 25.1824C65.9596 24.9285 66.0474 24.7141 66.0947 24.5201C65.6574 24.6096 65.2038 24.6952 64.7314 24.777C64.3882 24.8364 64.0361 24.8931 63.6738 24.9468C63.6386 25.1104 63.5917 25.2827 63.5166 25.477C63.3925 25.7969 63.1953 26.1612 62.8516 26.6128C62.4631 27.1234 61.8824 27.7508 61.2241 28.4253C62.1702 28.0731 63.0614 27.7152 63.8898 27.361H63.8896ZM67.1978 24.2791C67.1718 24.6491 67.0817 25.0544 66.7231 25.6078C66.5813 25.8266 66.3998 26.0637 66.191 26.3132C68.7334 25.0786 70.372 23.9948 71.6897 22.964C71.1201 23.1624 70.5367 23.3562 69.9276 23.543C69.0779 23.8036 68.1786 24.0507 67.1978 24.2788V24.2791ZM59.099 29.1727C60.2369 28.0411 61.3619 26.918 61.9606 26.1313C62.249 25.7523 62.4111 25.4561 62.5097 25.2012C62.5231 25.1666 62.5355 25.1326 62.5468 25.0988C61.7354 25.1978 60.8753 25.2802 59.9581 25.3403C59.209 26.5893 58.4367 27.829 57.2491 28.9C56.6972 29.3977 56.0637 29.851 55.3846 30.2793C55.8315 30.1611 56.2724 30.0394 56.7062 29.9142C57.5297 29.6771 58.3283 29.4284 59.0988 29.1727H59.099ZM52.1649 31.0368C53.7499 30.1836 55.3282 29.3273 56.4745 28.2932C57.4211 27.4394 58.1005 26.436 58.7317 25.4053C58.3643 25.4202 57.9885 25.4319 57.6034 25.4393C57.1899 25.4476 56.7659 25.4512 56.3311 25.4499C56.2441 25.5049 56.1504 25.5691 56.0371 25.6597C55.8546 25.8055 55.6137 26.0253 55.2561 26.3927C55.0087 26.6471 54.9415 26.7178 54.8663 26.797C54.1126 27.5901 53.045 28.7129 51.7113 29.6975C50.7302 30.4217 49.6168 31.0629 48.4532 31.6723C49.7185 31.5005 50.9583 31.285 52.1649 31.0366V31.0368ZM45.8202 31.9628C47.6765 31.0464 49.5267 30.1266 51.0152 29.028C52.2853 28.0904 53.3148 27.0075 54.042 26.2425L54.4359 25.8279C54.5863 25.6734 54.7196 25.5415 54.8393 25.4277C54.2295 25.4112 53.5993 25.3857 52.9474 25.3498C52.8092 25.3952 52.6581 25.4522 52.4447 25.5645C52.1558 25.7164 51.7581 25.9662 51.1429 26.4102C50.7353 26.7046 50.1929 27.1148 49.5957 27.5669C48.4491 28.4346 47.096 29.4583 45.8503 30.2871C44.9117 30.9114 44.0609 31.4053 43.2541 31.8338C43.0567 31.9388 42.8623 32.0394 42.6698 32.1375C43.7293 32.1094 44.7812 32.0508 45.8202 31.9628ZM40.5308 32.1532C41.2392 31.8152 41.9497 31.4741 42.6904 31.0804C43.4755 30.6635 44.298 30.1864 45.1954 29.5894C46.3768 28.8038 47.7355 27.7753 48.887 26.9041C49.468 26.4644 49.9957 26.065 50.4547 25.7335C50.7328 25.5327 50.9717 25.3676 51.1792 25.2314C50.3597 25.1669 49.5084 25.0872 48.6226 24.9907C48.2812 25.1021 47.935 25.22 47.5453 25.3981C47.1084 25.5975 46.6121 25.8741 45.9981 26.3044C45.64 26.5555 45.1988 26.8927 44.7181 27.2598C43.605 28.1105 42.2813 29.1221 40.8103 29.9323C39.7551 30.5136 38.6307 30.9865 37.4717 31.4055C36.98 31.5833 36.4819 31.751 35.9801 31.9133C37.4959 32.056 39.0173 32.1354 40.5302 32.1532H40.5308ZM33.7567 31.6576C34.8683 31.3178 35.9786 30.9759 37.058 30.5858C38.1598 30.1877 39.2284 29.738 40.2308 29.1859C41.6357 28.4121 42.9233 27.4281 44.0061 26.6006C44.4725 26.2441 44.9012 25.9167 45.3231 25.6207C45.8614 25.2433 46.3194 24.9721 46.7289 24.7649C46.047 24.6772 45.3476 24.5804 44.634 24.4757C44.2597 24.5283 43.8787 24.5879 43.4063 24.7394C42.885 24.9066 42.2427 25.1878 41.3589 25.6958C40.4945 26.193 39.4138 26.8973 38.2983 27.6242C37.0312 28.45 35.7194 29.3051 34.6109 29.9318C33.3888 30.6227 32.4294 31.0291 31.5819 31.3142C32.3027 31.4437 33.0282 31.558 33.757 31.6573L33.7567 31.6576ZM29.6435 30.9269C30.8598 30.6168 32.1017 30.2785 34.0221 29.1928C35.0964 28.5855 36.3961 27.7382 37.6516 26.9198C38.7856 26.1806 39.8843 25.4646 40.7619 24.96C41.4132 24.5856 41.9502 24.3222 42.4118 24.1325C41.9693 24.0611 41.5229 23.9868 41.0734 23.9104C40.021 24.0069 38.9558 24.1191 37.3618 24.8519C36.4899 25.2525 35.4426 25.8449 34.3444 26.466C33.2987 27.0573 32.208 27.6745 31.1839 28.1778C30.095 28.7132 29.0529 29.1387 28.034 29.5086C27.478 29.7107 26.9232 29.898 26.3689 30.0783C27.4409 30.399 28.5345 30.6815 29.6437 30.9267L29.6435 30.9269ZM24.8782 29.6028C25.7766 29.3182 26.6776 29.03 27.6154 28.6892C28.5957 28.3329 29.5994 27.9234 30.6492 27.4072C31.6862 26.8973 32.7429 26.2995 33.7559 25.7268C34.8724 25.0954 35.9372 24.4932 36.8559 24.0706C37.4593 23.7933 37.9922 23.5961 38.4788 23.4522C37.6547 23.3012 36.8253 23.1444 35.9938 22.9828C34.5478 23.6488 33.1044 24.3124 31.7243 24.9107C30.2538 25.548 28.8225 26.1277 27.4695 26.5916C26.1105 27.0576 24.8249 27.409 23.5761 27.7034C22.8015 27.8858 22.0418 28.046 21.2878 28.1977C22.3605 28.6732 23.4667 29.1134 24.6009 29.5076C24.6931 29.5396 24.7855 29.5713 24.8782 29.6028ZM19.9028 27.5563C21.0198 27.3378 22.1386 27.1164 23.2901 26.8452C24.4997 26.5601 25.7478 26.2188 27.0715 25.7649C28.4011 25.309 29.8026 24.7419 31.2395 24.1189C32.3079 23.6557 33.3793 23.1702 34.4518 22.6784C33.3121 22.4498 32.1738 22.2137 31.0472 21.9733C28.5558 22.9903 26.0631 24.0004 23.5217 24.7009C21.338 25.3029 19.1426 25.6703 16.9451 25.9995C17.8943 26.5408 18.8815 27.063 19.9025 27.5563H19.9028ZM15.7167 25.2758C18.2269 24.9076 20.7358 24.5312 23.1948 23.8531C25.2918 23.2749 27.3768 22.4717 29.4594 21.6296C28.0234 21.3153 26.6161 20.9962 25.2594 20.6796C23.3686 21.6053 21.4695 22.5192 19.313 23.0657C18.2035 23.3469 17.0283 23.5278 15.8207 23.6583C15.0453 23.7422 14.2769 23.8041 13.5107 23.858C14.2159 24.3364 14.9521 24.8108 15.7169 25.2755L15.7167 25.2758ZM12.3412 23.0419C13.4824 22.9679 14.6195 22.8918 15.6878 22.7762C16.8326 22.6523 17.9499 22.48 19.0105 22.2114C20.7199 21.778 22.2907 21.0855 23.8348 20.3437C23.0877 20.1654 22.3597 19.9887 21.6549 19.8148C21.486 19.773 21.3186 19.7317 21.1523 19.6902C20.4871 19.9812 19.8134 20.2696 19.0412 20.5295C18.2012 20.812 17.2811 21.0447 16.2009 21.1781C15.1377 21.3092 13.9134 21.3435 12.609 21.3293C11.7543 21.32 10.8785 21.2906 9.99604 21.2542C10.7243 21.8435 11.5077 22.4434 12.3415 23.0422L12.3412 23.0419ZM8.86771 20.3127C10.1551 20.3708 11.4374 20.4268 12.6211 20.4397C13.8657 20.4531 15.0335 20.4206 16.0475 20.2954C17.0443 20.1726 17.8868 19.96 18.6517 19.7028C19.0005 19.5854 19.3413 19.4554 19.6773 19.3184C18.5376 19.0273 17.4649 18.7443 16.456 18.4693C15.7005 18.646 14.9446 18.8207 14.1909 18.9584C13.3607 19.1101 12.507 19.2237 11.607 19.2608C10.2692 19.3158 8.86694 19.1984 7.44901 19.0382C7.57129 19.1532 7.6964 19.2693 7.82409 19.3862C8.15412 19.6889 8.50242 19.9985 8.86797 20.313L8.86771 20.3127ZM6.40101 18.0134C8.17703 18.2303 9.94713 18.4375 11.5571 18.3712C12.3811 18.3374 13.1805 18.2301 13.9669 18.0864C14.1886 18.0459 14.4074 18.0028 14.6241 17.9581C13.7164 17.6988 12.8672 17.447 12.0735 17.2019C11.9888 17.1759 11.9049 17.1495 11.8212 17.1237C10.1253 17.1047 8.43266 17.0801 6.93235 16.7705C6.10419 16.5995 5.353 16.3471 4.6376 16.0571C5.14989 16.6807 5.72988 17.3302 6.40075 18.0136L6.40101 18.0134ZM3.47092 14.5251C4.64841 15.0803 5.83157 15.6263 7.18128 15.9052C7.69923 16.0122 8.25039 16.0824 8.82292 16.1296C7.71468 15.7362 6.75652 15.3616 5.93222 15.004C4.46203 14.3664 3.42664 13.7882 2.61702 13.2397C2.88115 13.6602 3.16252 14.0875 3.47118 14.5251H3.47092ZM66.5022 23.0476L66.875 23.4305C67.4403 23.2994 67.9781 23.1619 68.4945 23.019C67.8872 23.0484 67.2272 23.0595 66.5022 23.0476ZM65.7469 23.6751L65.0884 22.9988C64.284 22.9576 63.4087 22.891 62.4724 22.7979L63.4646 24.074C63.8262 24.0206 64.1779 23.9641 64.5203 23.9047C64.944 23.8314 65.3523 23.7548 65.7469 23.6751ZM62.3177 24.2275L61.0877 22.6456C60.2155 22.5409 59.2996 22.415 58.3468 22.2666L59.9058 24.4512C60.7579 24.3947 61.5596 24.3186 62.3174 24.2272L62.3177 24.2275ZM58.7183 24.5152L56.95 22.0375C56.7906 22.0102 56.6305 21.982 56.4696 21.9534C55.9939 21.8688 55.5107 21.779 55.0205 21.6838L56.5072 24.5606C56.8738 24.5606 57.2324 24.557 57.5828 24.55C57.9707 24.5422 58.3489 24.5306 58.7183 24.5152ZM55.348 24.549L53.7331 21.424C52.8208 21.2336 51.8884 21.0251 50.9397 20.7975C51.0762 21.0339 51.1954 21.2395 51.2819 21.3881C51.5609 21.8667 51.8279 22.3187 52.0701 22.7168C52.4903 23.4075 52.844 23.9478 53.1899 24.47C53.9386 24.5095 54.6573 24.5353 55.348 24.5487V24.549ZM51.9306 24.3926C51.6871 24.0187 51.4278 23.6119 51.1297 23.1217C50.8844 22.7181 50.6149 22.2617 50.3332 21.779C50.0107 21.2258 49.7828 20.8316 49.5676 20.4582C48.6823 20.2325 47.7854 19.9905 46.88 19.732L46.6947 19.6788C46.9568 20.0395 47.2181 20.4371 47.4781 20.9046C47.7499 21.3935 48.0163 21.9534 48.28 22.5489C48.5098 23.068 48.731 23.5969 48.9508 24.1271C49.9921 24.2386 50.9843 24.3263 51.9306 24.3926ZM47.7751 23.9937C47.6114 23.6018 47.449 23.2184 47.2899 22.8593C47.035 22.2834 46.7789 21.7449 46.5212 21.2813C46.0426 20.4206 45.5442 19.7977 45.0446 19.1894C44.0362 18.8823 43.0188 18.5596 41.9937 18.2278C42.5449 18.9079 43.0644 19.5986 43.5 20.3184C43.8454 20.8894 44.1397 21.4849 44.4082 22.0922C44.6407 22.6183 44.8427 23.1258 45.0407 23.6302C45.9736 23.7654 46.8811 23.8864 47.7553 23.9914L47.7754 23.9937H47.7751ZM43.8555 23.4532C43.7124 23.0938 43.5674 22.7403 43.4181 22.4023C43.1681 21.8368 42.8899 21.2754 42.5557 20.7227C41.9137 19.6613 41.0701 18.6535 40.2198 17.648C39.7917 17.5071 39.3625 17.3655 38.9321 17.2236C38.3194 17.0213 37.7044 16.8185 37.0874 16.6162C37.1288 16.6648 37.1702 16.7135 37.2117 16.7625C37.6259 17.2535 38.0326 17.7747 38.4242 18.356C38.9409 19.1231 39.4225 19.9807 39.8396 20.7232C40.0509 21.0996 40.2458 21.4467 40.4139 21.7261C40.8371 22.4307 41.1239 22.7669 41.3926 23.0551C42.2265 23.1962 43.049 23.3291 43.8557 23.4532H43.8555ZM39.9008 22.7968C39.7711 22.6118 39.629 22.3933 39.4691 22.1273C39.2905 21.8296 39.0948 21.4815 38.8824 21.1035C38.4716 20.3721 37.9971 19.5276 37.5041 18.7956C37.1321 18.2435 36.745 17.7471 36.3498 17.2788C35.9794 16.8394 35.6017 16.4243 35.2241 16.011C34.1367 15.6616 33.0436 15.3185 31.947 14.9898C31.9948 15.0401 32.043 15.0912 32.0914 15.1433C32.581 15.6701 33.0686 16.263 33.5523 16.988C34.477 18.3743 35.3914 20.2425 36.3053 22.1286C37.5124 22.3629 38.7151 22.5868 39.9011 22.7968H39.9008ZM35.0397 21.8796C34.233 20.2227 33.4269 18.6212 32.6281 17.4238C32.1686 16.7349 31.7124 16.1794 31.2586 15.6908C30.8385 15.2387 30.3995 14.8244 29.9591 14.4121C28.5193 14.0083 27.0751 13.6368 25.6299 13.3148C25.6947 13.3635 25.7596 13.4128 25.8242 13.4631C26.5092 13.9944 27.1842 14.6118 27.8386 15.4013C28.4884 16.1849 29.1057 17.1219 29.7065 18.1357C30.2628 19.074 30.8155 20.0955 31.3677 21.1221C32.5823 21.3809 33.8108 21.6348 35.0397 21.8796ZM30.052 20.8385C29.6257 20.0511 29.1966 19.2735 28.7576 18.5332C28.1712 17.5443 27.5783 16.6413 26.9726 15.9106C26.3718 15.1858 25.7457 14.6141 25.1073 14.119C24.4928 13.6427 23.8626 13.2343 23.2314 12.8292C22.6864 12.7301 22.1414 12.6388 21.5959 12.5542C21.8299 12.8 22.0613 13.0511 22.2884 13.3114C22.811 13.9105 23.3001 14.5481 23.7223 15.2617C24.5206 16.6108 25.0733 18.2182 25.6147 19.838C27.046 20.1719 28.5339 20.508 30.0518 20.8385H30.052ZM24.4204 19.557C23.9475 18.1607 23.4479 16.7987 22.7739 15.6593C22.379 14.9918 21.9223 14.3966 21.4353 13.838C20.9824 13.3189 20.4946 12.822 20.0042 12.3266C18.9454 12.1881 17.8858 12.0738 16.8262 11.9798C17.0285 12.1414 17.2288 12.307 17.4258 12.4786C18.0122 12.9897 18.5726 13.5583 19.0808 14.2413C19.5856 14.9196 20.0269 15.6941 20.4362 16.5167C20.81 17.2677 21.157 18.0562 21.5019 18.8478C21.6512 18.8849 21.8016 18.9221 21.953 18.9595C22.7476 19.1556 23.5722 19.3553 24.4202 19.5568L24.4204 19.557ZM20.2336 18.5291C19.981 17.9574 19.7251 17.3947 19.4584 16.8588C19.0651 16.0685 18.6488 15.3342 18.186 14.7127C17.7267 14.0955 17.2095 13.5725 16.6635 13.0962C16.1497 12.6481 15.6124 12.2435 15.0736 11.8426C14.2187 11.7838 13.3635 11.7368 12.5083 11.6996L12.2972 11.6906C13.0433 12.1638 13.7569 12.7074 14.3886 13.4286C14.9117 14.0258 15.3661 14.7312 15.7862 15.4906C16.1584 16.164 16.5139 16.9016 16.8677 17.6444C17.9198 17.9311 19.0406 18.2257 20.2338 18.5291H20.2336ZM15.5512 17.2801C15.3179 16.801 15.0788 16.327 14.8247 15.8672C14.429 15.1518 14.0076 14.4949 13.5349 13.9554C12.627 12.9187 11.4819 12.2647 10.3286 11.6238C9.02269 11.5892 7.71751 11.573 6.41233 11.5673C6.54723 11.6215 6.68083 11.6759 6.81238 11.7314C7.70052 12.1045 8.53949 12.5193 9.28038 13.017C10.7127 13.9791 11.7237 15.2111 12.7212 16.4514C13.5978 16.7194 14.54 16.9955 15.5514 17.2801H15.5512ZM10.9792 15.9013C10.2851 15.0919 9.53729 14.3295 8.62135 13.7144C7.94843 13.2624 7.17047 12.879 6.33974 12.5299C5.50386 12.1785 4.64764 11.8725 3.79039 11.5681C3.20113 11.5704 2.61187 11.574 2.02287 11.5781C2.96044 12.3862 4.13432 13.2224 6.41645 14.2121C7.61763 14.733 9.12 15.2945 10.9792 15.9016V15.9013ZM55.1482 8.53466C55.4193 8.62626 55.5511 8.88555 55.4425 9.11363C55.3338 9.34197 55.0259 9.45266 54.7549 9.36132C53.4072 8.92013 52.0585 8.47997 50.1281 8.68302C48.1852 8.8871 45.606 9.72692 43.4531 10.4279L43.2613 10.4904C42.1163 10.8629 41.1089 11.1875 40.2623 11.4422C39.3677 11.7113 38.5653 11.9313 37.8272 12.0957C37.2336 12.2278 36.6917 12.3212 36.1809 12.3914C37.847 12.9396 39.4964 13.4781 41.0853 13.983L41.656 14.1636C42.445 14.1551 43.2855 14.127 45.38 13.6244C46.6041 13.3308 48.2305 12.8824 49.9149 12.3501C51.313 11.9081 52.7678 11.4027 54.0894 10.8717C55.6734 10.2352 57.02 9.58063 58.2168 8.99908C59.2592 8.49261 60.1911 8.03955 61.0455 7.70517C62.0186 7.32409 62.9057 7.0875 63.844 6.99487C64.7764 6.90276 65.7485 6.95565 66.8953 7.15355C68.6425 7.45516 70.7779 8.09037 72.8781 8.71553C73.4217 8.8773 73.9634 9.03855 74.5889 9.21967C75.8751 9.59198 77.0971 9.92146 78.238 10.1828C79.3671 10.4413 80.4133 10.6323 81.3591 10.7306C82.3016 10.8284 83.1465 10.8356 83.9425 10.7974C84.7559 10.7584 85.5218 10.673 86.2877 10.5876L88.0011 10.397L86.7062 11.3619C86.1368 11.7861 85.5676 12.2105 84.9271 12.6512C84.2763 13.0988 83.5506 13.5656 82.6751 14.0702C81.7571 14.5994 80.6597 15.1773 79.4737 15.7408C78.4162 16.2432 77.3041 16.7267 76.2069 17.1434C75.0222 17.5931 73.8416 17.9729 72.5748 18.2768C71.3069 18.581 69.9526 18.8098 68.4219 18.9574C66.9051 19.1034 65.2069 19.1692 63.438 19.154C61.6764 19.139 59.8582 19.0446 58.0932 18.8707C56.3162 18.6955 54.5814 18.4398 52.785 18.0887C50.9917 17.7383 49.1421 17.2943 47.1323 16.7416C45.3393 16.2486 43.413 15.6673 41.413 15.0378C41.388 15.0316 41.3638 15.0238 41.3406 15.015L40.713 14.8164C38.4468 14.0965 36.1354 13.3336 33.8236 12.5712L31.7431 11.8849L33.9686 11.7133C34.5138 11.6713 35.0593 11.6292 35.6666 11.5562C36.2497 11.486 36.8683 11.388 37.5585 11.2342C38.2476 11.0807 39.0243 10.8671 39.9067 10.6016C40.8374 10.3216 41.8053 10.0102 42.8808 9.66035L43.0726 9.59791C45.286 8.8773 47.9376 8.014 50.0004 7.79702C52.1903 7.56662 53.6667 8.04987 55.1428 8.53286L55.1493 8.53466H55.1482ZM43.89 14.8561C45.1218 15.2305 46.3163 15.5798 47.4588 15.8941C49.4428 16.4398 51.2631 16.8771 53.0203 17.2205C54.7744 17.5631 56.4714 17.8131 58.2124 17.985C59.9589 18.1571 61.7385 18.2505 63.4452 18.2649C65.1585 18.2794 66.8127 18.2149 68.3007 18.0717C69.769 17.9303 71.0678 17.711 72.2836 17.4192C73.5005 17.1271 74.634 16.7625 75.7708 16.3309C76.8605 15.917 77.9422 15.448 78.955 14.9668C80.0933 14.426 81.1655 13.8602 82.0776 13.3346C82.9323 12.8421 83.6341 12.3911 84.2594 11.961C84.4161 11.8532 84.568 11.7466 84.7163 11.6413C84.481 11.6599 84.2426 11.6754 84.0001 11.687C83.1416 11.7283 82.2344 11.7208 81.2304 11.6166C80.2298 11.5126 79.1344 11.3134 77.9603 11.0443C76.798 10.7783 75.5541 10.4429 74.245 10.0639C73.7453 9.91913 73.137 9.73827 72.5259 9.55637C70.4536 8.93974 68.347 8.31278 66.684 8.02587C65.6535 7.8481 64.787 7.79986 63.964 7.88113C63.1469 7.96189 62.3612 8.17319 61.4888 8.5148C60.6539 8.84169 59.7516 9.28005 58.743 9.77026C57.5091 10.3699 56.1206 11.0446 54.5453 11.6777C53.2208 12.21 51.7319 12.7263 50.2841 13.184C48.5495 13.7322 46.8978 14.1881 45.6704 14.4828C44.9557 14.6541 44.3765 14.7733 43.8905 14.8566L43.89 14.8561Z" fill="#553B1E" fill-opacity="0.070588"/>
</g>
<defs>
<clipPath id="clip0_723_1662">
<rect width="88" height="40" fill="white"/>
</clipPath>
</defs>
</svg>
